<svg width="48" height="48" viewBox="0 0 48 48" fill="none" xmlns="http://www.w3.org/2000/svg">
    <title>TikTok</title>
    <circle cx="24" cy="24" r="24" fill="#FFFBF9"/>
    <path d="M20.7993 38.4C25.6583 38.4 29.5986 34.4832 29.5986 29.6493V17.8111C31.027 19.9815 33.4591 21.2882 36.068 21.2882C36.3055 21.2865 36.543 21.2744 36.7805 21.252H36.784V16.4595C33.0535 16.1888 30.0545 13.2995 29.6627 9.59998H25.5127L25.4694 29.7062C25.4694 32.1731 23.2782 34.116 20.7976 34.116C18.3169 34.116 16.3078 32.1162 16.3078 29.651C16.3078 27.1858 18.3186 25.186 20.7976 25.186C20.983 25.186 21.1616 25.2188 21.3419 25.2412V20.9279C21.1616 20.9159 20.9813 20.9003 20.7976 20.9003C15.9385 20.9003 12 24.8171 12 29.6493C12 34.4815 15.9385 38.4 20.7993 38.4Z" fill="#2F222B"/>
</svg>