<svg width="48" height="48" viewBox="0 0 48 48" fill="none" xmlns="http://www.w3.org/2000/svg">
    <title>YouTube</title>
    <circle cx="24" cy="24" r="24" fill="#FFFBF9"/>
    <path d="M38.9732 17.5919C38.6282 16.3355 37.6116 15.346 36.3209 15.0102C33.9814 14.4 24.6001 14.4 24.6001 14.4C24.6001 14.4 15.2189 14.4 12.8793 15.0102C11.5886 15.3461 10.572 16.3355 10.227 17.5919C9.6001 19.8692 9.6001 24.6206 9.6001 24.6206C9.6001 24.6206 9.6001 29.372 10.227 31.6493C10.572 32.9057 11.5886 33.854 12.8793 34.1898C15.2189 34.8 24.6001 34.8 24.6001 34.8C24.6001 34.8 33.9813 34.8 36.3209 34.1898C37.6116 33.854 38.6282 32.9057 38.9732 31.6493C39.6001 29.372 39.6001 24.6206 39.6001 24.6206C39.6001 24.6206 39.6001 19.8692 38.9732 17.5919ZM21.5319 28.9345V20.3067L29.3728 24.6207L21.5319 28.9345Z" fill="rgb(144, 130, 140)"/>
</svg>